<svg width="32" height="32" viewBox="0 0 32 32" fill="none" xmlns="http://www.w3.org/2000/svg">
<path fill-rule="evenodd" clip-rule="evenodd" d="M9.77445 15.9085C9.40597 16.2909 8.79726 16.3022 8.41486 15.9337L4.49056 12.1522C3.83299 11.5185 3.83703 10.4643 4.49944 9.83572L8.41501 6.12005C8.80021 5.75451 9.40882 5.77045 9.77436 6.15566C10.1399 6.54087 10.124 7.14948 9.73875 7.51502L6.06631 11L9.74926 14.5489C10.1317 14.9174 10.1429 15.5261 9.77445 15.9085Z" fill="#03659D"/>
<path d="M6.02809 11L16.1887 11" stroke="#03659D" stroke-width="2" stroke-linecap="round"/>
<path d="M16.5 4.75C16.8298 4.75 17.2338 4.92547 17.6904 5.44043C18.1463 5.95457 18.5908 6.74174 18.9795 7.77832C19.7548 9.84594 20.25 12.7525 20.25 16C20.25 19.2475 19.7548 22.1541 18.9795 24.2217C18.5908 25.2583 18.1463 26.0454 17.6904 26.5596C17.2338 27.0745 16.8298 27.25 16.5 27.25C16.1702 27.25 15.7662 27.0745 15.3096 26.5596C14.8537 26.0454 14.4092 25.2583 14.0205 24.2217C13.2452 22.1541 12.75 19.2475 12.75 16C12.75 12.7525 13.2452 9.84594 14.0205 7.77832C14.4092 6.74174 14.8537 5.95457 15.3096 5.44043C15.7662 4.92547 16.1702 4.75 16.5 4.75Z" fill="#9495A4" fill-opacity="0.45" stroke="#90A9D0" stroke-width="1.5"/>
<path fill-rule="evenodd" clip-rule="evenodd" d="M23.2533 15.0915C23.6217 14.7091 24.2305 14.6978 24.6128 15.0663L28.5371 18.8479C29.1947 19.4815 29.1907 20.5357 28.5283 21.1643L24.6127 24.88C24.2275 25.2455 23.6189 25.2296 23.2534 24.8444C22.8878 24.4591 22.9038 23.8505 23.289 23.485L26.9614 20.0001L23.2784 16.4511C22.8961 16.0826 22.8848 15.4739 23.2533 15.0915Z" fill="#00A7FF"/>
<path d="M27.1606 20.0001L17 20.0001" stroke="#00A7FF" stroke-width="2" stroke-linecap="round"/>
</svg>
